<svg version="1.1" viewBox="0.0 0.0 1024.0 1024.0" fill="none" stroke="none" stroke-linecap="square" stroke-miterlimit="10" xmlns:xlink="http://www.w3.org/1999/xlink" xmlns="http://www.w3.org/2000/svg"><clipPath id="p.0"><path d="m0 0l1024.0 0l0 1024.0l-1024.0 0l0 -1024.0z" clip-rule="nonzero"/></clipPath><g clip-path="url(#p.0)"><path fill="#ffffff" d="m0 0l1024.0 0l0 1024.0l-1024.0 0z" fill-rule="evenodd"/><path fill="#ffffff" d="m0 0l1024.0 0l0 1024.0l-1024.0 0z" fill-rule="evenodd"/><path stroke="#ffffff" stroke-width="1.0" stroke-linejoin="round" stroke-linecap="butt" d="m0 0l1024.0 0l0 1024.0l-1024.0 0z" fill-rule="evenodd"/><path fill="#444444" d="m75.338585 77.7769l873.3229 0l0 888.8819l-873.3229 0z" fill-rule="evenodd"/><path stroke="#ffffff" stroke-width="1.0" stroke-linejoin="round" stroke-linecap="butt" d="m75.338585 77.7769l873.3229 0l0 888.8819l-873.3229 0z" fill-rule="evenodd"/><path fill="#000000" fill-opacity="0.0" d="m89.55118 258.62204l806.6771 0l0 584.97644l-806.6771 0z" fill-rule="evenodd"/><path fill="#ffffff" d="m539.93756 494.59076q14.625 0 22.4375 7.4375q7.8125 7.4375 7.8125 19.078125q0 15.46875 -9.65625 27.921875q-9.65625 12.453125 -29.65625 13.0625q-38.5625 0.96875 -61.09375 -4.125q-30.546875 64.078125 -79.484375 112.03125q-48.921875 47.953125 -100.015625 47.953125q-54.984375 0 -80.421875 -60.328125q-25.421875 -60.34375 -25.421875 -158.45312q0 -82.984375 11.796875 -149.14062q4.671875 -26.96875 14.75 -38.265625q10.078125 -11.296875 33.09375 -11.296875q40.515625 0 40.515625 36.3125q0 3.390625 -1.015625 11.65625q-13.90625 83.40625 -13.90625 150.73438q0 69.890625 10.578125 102.890625q10.59375 33.0 27.296875 33.0q19.765625 0 46.359375 -31.390625q26.59375 -31.390625 46.1875 -73.28125q-23.4375 -14.578125 -39.0625 -45.046875q-15.609375 -30.484375 -15.609375 -69.703125q0 -38.9375 12.453125 -66.640625q12.46875 -27.71875 34.71875 -41.859375q22.25 -14.140625 49.34375 -14.140625q34.484375 0 54.53125 24.59375q20.0625 24.59375 20.0625 65.390625q0 55.390625 -19.90625 109.5q12.390625 2.109375 43.3125 2.109375zm-127.9375 -82.21875q0 40.859375 14.859375 51.953125q13.296875 -38.1875 13.296875 -70.609375q0 -17.0625 -3.109375 -22.5625q-3.109375 -5.515625 -6.296875 -5.515625q-6.8125 0 -12.78125 11.0625q-5.96875 11.0625 -5.96875 35.671875zm474.58997 15.40625q0 42.421875 -21.953125 77.84375q-21.9375 35.40625 -63.21875 57.515625q-41.265625 22.109375 -89.90625 25.46875l-18.75 105.015625q-13.09375 72.859375 -73.015625 72.859375q-31.53125 0 -57.96875 -18.484375q-26.4375 -18.46875 -41.828125 -55.203125q-15.3906555 -36.734375 -15.3906555 -89.09375q0 -96.859375 31.609406 -165.15625q31.609375 -68.296875 85.5625 -102.71875q53.96875 -34.4375 118.875 -34.4375q46.171875 0 79.03125 16.5625q32.875 16.5625 49.90625 45.296875q17.046875 28.71875 17.046875 64.53125zm-163.14062 92.296875q74.171875 -9.390625 74.171875 -88.09375q0 -26.640625 -17.390625 -43.21875q-17.390625 -16.59375 -55.953125 -16.59375q-44.5 0 -77.859375 28.34375q-33.34375 28.328125 -51.984375 80.203125q-18.640625 51.875 -18.640625 119.25q0 27.6875 5.4375 48.59375q5.453125 20.890625 12.53125 30.53125q7.09375 9.625 10.578125 9.625q3.609375 0 8.171875 -24.21875l13.671875 -78.359375q-6.90625 -10.890625 -4.578125 -10.4375q-19.75 6.5625 -25.9375 -2.703125q-6.1875 -9.265625 -6.1875 -22.03125q0 -14.1875 8.625 -23.140625q8.625 -8.96875 23.03125 -8.96875q5.640625 0 8.75 0.625q10.625 1.765625 9.96875 4.796875q2.03125 -30.96875 13.25 -92.15625q3.5 -19.890625 16.484375 -28.640625q12.984375 -8.75 29.484375 -8.75q19.0 0 28.8125 8.46875q9.828125 8.453125 9.828125 25.515625q0 8.40625 -1.078125 13.875l-13.1875 77.484375z" fill-rule="nonzero"/></g></svg>